<svg width="2076" height="392" viewBox="0 0 2076 392" fill="none" xmlns="http://www.w3.org/2000/svg">
<path d="M604.71 218.199L639.416 217.772C639.131 228.949 636.319 238.738 630.98 247.139C625.712 255.468 618.664 261.911 609.836 266.467C601.079 270.952 591.148 273.088 580.042 272.875C570.36 272.661 562.386 270.561 556.121 266.574C549.857 262.516 545.015 257.177 541.598 250.556C538.181 243.864 536.01 236.46 535.084 228.344C534.23 220.228 534.301 212.041 535.298 203.783L538.715 182.105C539.996 173.49 542.168 165.054 545.229 156.796C548.361 148.466 552.526 140.956 557.723 134.264C562.92 127.572 569.221 122.303 576.625 118.459C584.1 114.615 592.714 112.799 602.467 113.013C613.787 113.226 622.971 115.825 630.019 120.808C637.067 125.792 642.228 132.484 645.503 140.884C648.778 149.285 650.38 158.718 650.308 169.183L614.534 168.97C615.175 164.413 615.353 160.178 615.068 156.262C614.855 152.275 613.645 149 611.438 146.437C609.302 143.875 605.493 142.486 600.011 142.273C594.814 142.059 590.65 143.234 587.517 145.797C584.385 148.36 582 151.741 580.362 155.942C578.725 160.071 577.515 164.449 576.732 169.077C576.02 173.704 575.414 177.976 574.916 181.891L571.712 203.889C571.357 206.951 570.787 210.688 570.004 215.102C569.292 219.516 568.972 223.859 569.043 228.13C569.185 232.402 570.182 236.033 572.033 239.023C573.955 241.942 577.372 243.543 582.284 243.828C587.695 243.971 592.002 242.938 595.206 240.731C598.409 238.453 600.723 235.356 602.147 231.441C603.642 227.454 604.496 223.04 604.71 218.199ZM726.128 243.081L721.216 270.739H666.113L671.025 243.081H726.128ZM700.926 146.331L679.248 270.739H644.862L666.434 146.331H700.926ZM816.684 243.081L811.772 270.739H754.107L759.019 243.081H816.684ZM788.919 146.331L767.241 270.739H732.856L754.427 146.331H788.919ZM818.073 192.57L813.267 220.335H762.97L767.775 192.57H818.073ZM833.77 146.331L828.965 174.096H770.979L775.891 146.331H833.77ZM884.708 187.551L849.789 270.739H814.228L874.777 146.331H899.338L884.708 187.551ZM892.824 270.739L885.135 184.881L884.602 146.331H907.561L925.822 270.739H892.824ZM902.969 224.393L898.698 248.954H844.342L848.721 224.393H902.969ZM1052.05 146.331L1030.58 270.739H997.156L981.672 196.948L968.857 270.739H934.472L956.043 146.331H989.574L1004.95 220.121L1017.77 146.331H1052.05ZM1176.35 149.641L1127.76 270.739H1088.46L1161.93 115.255H1186.71L1176.35 149.641ZM1177.63 270.739L1170.79 146.01L1171.65 115.255H1195.25L1214.9 270.739H1177.63ZM1188.63 212.753L1183.5 241.692H1117.93L1123.06 212.753H1188.63ZM1245.87 146.331L1290.72 146.544C1296.13 146.615 1301.22 147.434 1305.99 149C1310.83 150.495 1315.03 152.774 1318.59 155.835C1322.15 158.825 1324.89 162.562 1326.81 167.048C1328.73 171.461 1329.52 176.658 1329.16 182.639C1328.8 189.259 1327.63 194.99 1325.64 199.831C1323.71 204.673 1320.87 208.873 1317.09 212.432C1313.32 215.992 1308.55 219.267 1302.78 222.257L1289.86 229.519H1252.17L1256.76 201.754L1280.68 201.86C1283.74 201.718 1286.2 200.971 1288.05 199.618C1289.97 198.265 1291.43 196.485 1292.43 194.279C1293.42 192.072 1294.13 189.58 1294.56 186.803C1294.99 185.024 1295.24 183.208 1295.31 181.357C1295.45 179.506 1295.17 177.904 1294.45 176.552C1293.74 175.199 1292.21 174.416 1289.86 174.202L1275.23 174.096L1258.47 270.739H1224.29L1245.87 146.331ZM1281.53 270.739L1268.29 216.063L1303.64 215.85L1318.27 269.137V270.739H1281.53ZM1411.6 146.331L1389.92 270.739H1355.32L1376.89 146.331H1411.6ZM1442.36 146.331L1437.55 174.096H1342.4L1347.21 146.331H1442.36ZM1517.75 255.041L1563.45 115.255H1579.79L1589.94 128.924L1541.99 270.739H1523.3L1517.75 255.041ZM1538.68 115.255L1536.86 259.312L1527.79 270.739H1505.15L1503.97 115.255H1538.68ZM1577.23 255.361L1619.09 115.255H1654.86L1604.89 270.739H1583.53L1577.23 255.361ZM1593.57 115.255L1596.56 258.672L1587.8 270.739H1568.26L1563.77 125.827L1575.73 115.255H1593.57ZM1749.26 205.705L1748.73 209.976C1747.95 217.736 1746.06 225.354 1743.07 232.829C1740.15 240.304 1736.24 247.067 1731.32 253.119C1726.41 259.17 1720.54 263.976 1713.7 267.535C1706.87 271.095 1699.15 272.768 1690.53 272.554C1682.13 272.269 1675.08 270.312 1669.39 266.681C1663.76 262.979 1659.28 258.138 1655.93 252.158C1652.66 246.106 1650.41 239.485 1649.2 232.295C1648.07 225.033 1647.85 217.807 1648.56 210.617L1648.99 206.452C1649.92 198.692 1651.84 191.11 1654.76 183.706C1657.75 176.231 1661.7 169.504 1666.61 163.524C1671.59 157.543 1677.5 152.845 1684.34 149.428C1691.17 145.939 1698.9 144.302 1707.51 144.515C1715.84 144.8 1722.78 146.758 1728.33 150.389C1733.96 154.019 1738.41 158.825 1741.68 164.805C1744.96 170.714 1747.2 177.228 1748.41 184.347C1749.62 191.466 1749.91 198.586 1749.26 205.705ZM1714.13 210.724L1714.67 206.132C1714.88 203.996 1715.2 201.077 1715.63 197.375C1716.05 193.673 1716.12 189.936 1715.84 186.163C1715.56 182.318 1714.63 179.043 1713.06 176.338C1711.5 173.562 1708.86 172.067 1705.16 171.853C1700.96 171.639 1697.47 172.743 1694.7 175.163C1691.99 177.584 1689.85 180.681 1688.29 184.454C1686.72 188.227 1685.58 192.143 1684.87 196.201C1684.16 200.259 1683.63 203.818 1683.27 206.879L1682.95 211.044C1682.74 213.251 1682.42 216.206 1681.99 219.908C1681.63 223.61 1681.56 227.383 1681.77 231.227C1682.06 235 1683.02 238.24 1684.66 240.945C1686.3 243.65 1689 245.074 1692.77 245.216C1696.83 245.501 1700.18 244.433 1702.81 242.013C1705.45 239.521 1707.51 236.389 1709.01 232.615C1710.57 228.771 1711.71 224.855 1712.42 220.869C1713.21 216.882 1713.78 213.5 1714.13 210.724ZM1772.76 146.331L1817.61 146.544C1823.02 146.615 1828.11 147.434 1832.88 149C1837.72 150.495 1841.92 152.774 1845.48 155.835C1849.04 158.825 1851.78 162.562 1853.7 167.048C1855.63 171.461 1856.41 176.658 1856.05 182.639C1855.7 189.259 1854.52 194.99 1852.53 199.831C1850.61 204.673 1847.76 208.873 1843.99 212.432C1840.21 215.992 1835.44 219.267 1829.68 222.257L1816.75 229.519H1779.06L1783.65 201.754L1807.57 201.86C1810.63 201.718 1813.09 200.971 1814.94 199.618C1816.86 198.265 1818.32 196.485 1819.32 194.279C1820.31 192.072 1821.03 189.58 1821.45 186.803C1821.88 185.024 1822.13 183.208 1822.2 181.357C1822.34 179.506 1822.06 177.904 1821.35 176.552C1820.63 175.199 1819.1 174.416 1816.75 174.202L1802.12 174.096L1785.36 270.739H1751.19L1772.76 146.331ZM1808.43 270.739L1795.18 216.063L1830.53 215.85L1845.16 269.137V270.739H1808.43ZM1913.4 146.331L1891.72 270.739H1857.33L1878.91 146.331H1913.4ZM1977.58 146.331L1926.53 212.753L1898.45 240.838L1893.86 207.413L1910.84 182.745L1932.73 146.331H1977.58ZM1914.89 270.739L1903.79 215.636L1933.05 197.589L1953.76 270.739H1914.89ZM2021.15 235.926C2021.43 234.004 2021.4 232.295 2021.04 230.8C2020.68 229.305 2020.01 228.024 2019.01 226.956C2018.09 225.817 2016.88 224.82 2015.38 223.966C2013.96 223.04 2012.39 222.257 2010.68 221.616C2005.77 219.836 2001.21 217.914 1997.01 215.85C1992.81 213.785 1989.22 211.329 1986.23 208.481C1983.31 205.634 1981.1 202.145 1979.61 198.016C1978.18 193.887 1977.61 188.868 1977.9 182.959C1978.25 177.05 1979.68 171.746 1982.17 167.048C1984.66 162.278 1987.9 158.184 1991.89 154.767C1995.95 151.35 2000.54 148.751 2005.66 146.971C2010.79 145.192 2016.23 144.373 2022 144.515C2030.12 144.658 2037.24 146.295 2043.36 149.428C2049.48 152.489 2054.25 156.938 2057.67 162.776C2061.16 168.543 2062.94 175.591 2063.01 183.92L2029.05 183.813C2028.98 181.891 2028.8 179.862 2028.52 177.726C2028.3 175.519 2027.63 173.668 2026.49 172.173C2025.35 170.678 2023.46 169.966 2020.83 170.038C2018.69 169.966 2016.88 170.5 2015.38 171.639C2013.89 172.779 2012.68 174.238 2011.75 176.018C2010.82 177.726 2010.15 179.506 2009.72 181.357C2009.44 182.995 2009.44 184.49 2009.72 185.842C2010.01 187.124 2010.58 188.298 2011.43 189.366C2012.28 190.363 2013.28 191.253 2014.42 192.036C2015.63 192.748 2016.95 193.317 2018.37 193.745C2023.57 195.667 2028.34 197.731 2032.68 199.938C2037.09 202.074 2040.87 204.708 2044 207.841C2047.13 210.973 2049.45 214.711 2050.94 219.053C2052.51 223.325 2053.11 228.593 2052.76 234.858C2052.47 241.123 2051.05 246.64 2048.48 251.41C2045.99 256.109 2042.68 260.06 2038.55 263.264C2034.42 266.467 2029.69 268.852 2024.35 270.418C2019.08 271.913 2013.46 272.625 2007.48 272.554C2001.07 272.341 1995.27 271.237 1990.07 269.244C1984.87 267.25 1980.46 264.438 1976.83 260.807C1973.2 257.177 1970.39 252.763 1968.39 247.566C1966.47 242.369 1965.58 236.567 1965.72 230.159L1999.9 230.266C1999.83 232.687 1999.79 235 1999.79 237.207C1999.86 239.343 2000.22 241.194 2000.86 242.76C2001.5 244.255 2002.64 245.43 2004.27 246.284C2005.98 247.139 2008.33 247.53 2011.32 247.459C2013.6 247.388 2015.38 246.818 2016.66 245.75C2018.01 244.611 2019.01 243.187 2019.65 241.479C2020.36 239.77 2020.86 237.919 2021.15 235.926Z" fill="#0B1740"/>
<path d="M244.49 8.53223L9.06494 370.389H129.892L328.57 138.701L244.49 8.53223Z" fill="#1F69F6"/>
<path d="M345.387 383.468H484.897L403.931 268.869L288.71 309.353L345.387 383.468Z" fill="#1F69F6"/>
</svg>
